<?xml version="1.0" encoding="utf-8"?>
<!-- Generator: Adobe Illustrator 27.0.0, SVG Export Plug-In . SVG Version: 6.00 Build 0)  -->
<svg version="1.1" id="Layer_1" xmlns="http://www.w3.org/2000/svg" xmlns:xlink="http://www.w3.org/1999/xlink" x="0px" y="0px"
	 viewBox="0 0 100 100" style="enable-background:new 0 0 100 100;" xml:space="preserve">
<style type="text/css">
	.st0{fill:#FFFFFF;}
</style>
<g>
	<path class="st0" d="M83.3,17.8c-6.2-2.9-12.8-5-19.8-6.2c-0.9,1.5-1.8,3.6-2.5,5.3c-7.4-1.1-14.7-1.1-21.9,0
		c-0.7-1.6-1.7-3.7-2.6-5.3c-6.9,1.2-13.6,3.3-19.8,6.2C4.2,36.7,0.8,55.2,2.5,73.4c8.3,6.2,16.4,10,24.3,12.4
		c2-2.7,3.7-5.5,5.2-8.6c-2.9-1.1-5.6-2.4-8.2-4c0.7-0.5,1.4-1,2-1.6c15.8,7.4,32.9,7.4,48.5,0c0.7,0.5,1.3,1.1,2,1.6
		c-2.6,1.6-5.3,2.9-8.2,4c1.5,3,3.2,5.9,5.2,8.6c7.9-2.5,16-6.2,24.3-12.4C99.5,52.3,94.1,34,83.3,17.8z M34.1,62.2
		c-4.7,0-8.6-4.4-8.6-9.8s3.8-9.8,8.6-9.8c4.8,0,8.7,4.4,8.6,9.8C42.7,57.8,38.9,62.2,34.1,62.2z M65.9,62.2c-4.7,0-8.6-4.4-8.6-9.8
		s3.8-9.8,8.6-9.8c4.8,0,8.7,4.4,8.6,9.8C74.5,57.8,70.7,62.2,65.9,62.2z"/>
</g>
</svg>
