<?xml version="1.0" encoding="utf-8"?>
<!-- Generator: Adobe Illustrator 27.0.0, SVG Export Plug-In . SVG Version: 6.00 Build 0)  -->
<svg version="1.1" id="Layer_1" xmlns="http://www.w3.org/2000/svg" xmlns:xlink="http://www.w3.org/1999/xlink" x="0px" y="0px"
	 viewBox="0 0 100 100" style="enable-background:new 0 0 100 100;" xml:space="preserve">
<style type="text/css">
	.st0{fill-rule:evenodd;clip-rule:evenodd;fill:#FFFFFF;}
</style>
<g id="Page-1">
	<g id="Dribbble-Light-Preview" transform="translate(-60.000000, -7521.000000)">
		<g id="icons" transform="translate(56.000000, 160.000000)">
			<path id="twitter-_x5B__x23_154_x5D_" class="st0" d="M36.8,7448c34.9,0,54-28.5,54-53.2c0-0.8,0-1.6-0.1-2.4
				c3.7-2.6,6.9-5.9,9.5-9.7c-3.5,1.5-7.1,2.5-10.9,2.9c4-2.3,6.9-6,8.3-10.3c-3.7,2.2-7.8,3.7-12.1,4.5c-7.2-7.5-19.2-7.9-26.9-0.8
				c-4.9,4.6-7,11.4-5.5,17.9c-15.3-0.8-29.5-7.9-39.1-19.5c-5,8.5-2.5,19.5,5.9,24.9c-3-0.1-6-0.9-8.6-2.3v0.2
				c0,8.9,6.4,16.6,15.2,18.3c-2.8,0.8-5.7,0.9-8.6,0.3c2.5,7.6,9.6,12.8,17.7,13c-6.7,5.2-15,8-23.6,8c-1.5,0-3-0.1-4.5-0.3
				C16.4,7445.1,26.5,7448,36.8,7448"/>
		</g>
	</g>
</g>
</svg>
